<svg width="48" height="48" viewBox="0 0 48 48" fill="none" xmlns="http://www.w3.org/2000/svg">
<g clip-path="url(#clip0_844_11452)">
<rect width="48" height="48" rx="4" fill="#F96002"/>
<path d="M33 26.9875C31.9539 31.6375 28.6353 34 24.1263 34C18.4629 34 15 30.0625 15 23.5375C15 16.75 18.4629 13 23.9459 13C29.501 13 32.8557 16.9 32.8557 23.3125V24.2875H18.9319C19.1483 28.375 20.988 30.6625 24.1263 30.6625C26.5792 30.6625 28.3106 29.4625 28.9599 26.9875H33ZM23.9459 16.3375C21.1683 16.3375 19.509 18.175 19.0401 21.55H28.8517C28.3828 18.175 26.6874 16.3375 23.9459 16.3375Z" fill="white"/>
</g>
<defs>
<clipPath id="clip0_844_11452">
<rect width="48" height="48" fill="white"/>
</clipPath>
</defs>
</svg>
