<svg width="112" height="24" viewBox="0 0 112 24" fill="none" xmlns="http://www.w3.org/2000/svg">
<path d="M12.2392 13.7754C11.5089 16.8982 9.26758 18.4344 6.22036 18.4344C2.34208 18.4344 0 15.8153 0 11.4586C0 6.9255 2.34208 4.43232 6.09444 4.43232C9.87198 4.43232 12.1385 7.02623 12.1385 11.2823V11.8363H2.26653C2.39245 14.8332 3.80273 16.5205 6.22036 16.5205C8.10913 16.5205 9.44386 15.6139 9.92235 13.7754H12.2392ZM6.09444 6.34627C3.95383 6.34627 2.66946 7.68101 2.34208 10.1742H9.82162C9.51941 7.70619 8.18468 6.34627 6.09444 6.34627Z" fill="white"/>
<path d="M19.3477 18.4344C15.7968 18.4344 13.6562 15.8153 13.6562 11.4586C13.6562 6.9255 15.8472 4.43232 19.3477 4.43232C20.9343 4.43232 22.2187 5.08709 23.1001 6.32109V0H25.3162V18.1322H23.1001V16.4449C22.2187 17.7041 20.9343 18.4344 19.3477 18.4344ZM19.4988 16.5205C21.8409 16.5205 23.1001 14.7324 23.1001 11.4586C23.1001 8.20986 21.7905 6.34627 19.4988 6.34627C17.1819 6.34627 15.9227 8.1595 15.9227 11.4586C15.9227 14.6821 17.2323 16.5205 19.4988 16.5205Z" fill="white"/>
<path d="M28.0908 2.97167V0H30.3069V2.97167H28.0908ZM28.0908 18.1322V4.75971H30.3069V18.1322H28.0908Z" fill="white"/>
<path d="M34.7025 8.18468C34.7025 11.9119 43.3908 8.83945 43.3908 14.3547C43.3908 16.8478 41.1746 18.4344 38.0267 18.4344C34.8536 18.4344 32.6374 16.9234 32.1337 13.7754H34.3499C34.6521 15.639 36.0372 16.6716 38.1022 16.6716C40.1169 16.6716 41.1746 15.765 41.1746 14.5058C41.1746 10.8541 32.587 13.8762 32.587 8.33578C32.587 6.29591 34.1736 4.43232 37.4475 4.43232C40.3436 4.43232 42.4842 5.79224 42.9123 9.11648H40.6962C40.3688 7.02623 39.2103 6.24554 37.3216 6.24554C35.6594 6.24554 34.7025 7.0766 34.7025 8.18468Z" fill="white"/>
<path d="M54.3166 18.233C50.9168 18.233 48.8769 15.639 48.8769 11.3578C48.8769 6.87513 50.9671 4.43232 54.3166 4.43232C56.1046 4.43232 57.4393 5.06191 58.3208 6.22036V4.75971H60.5369V18.5352C60.5369 22.2623 58.1445 24 55.0721 24C51.9241 24 49.708 22.489 49.2295 19.4418H51.4456C51.7227 21.2046 53.1078 22.1616 55.0469 22.1616C57.0112 22.1616 58.3208 21.1039 58.3208 18.6107V16.319C57.389 17.5782 56.029 18.233 54.3166 18.233ZM54.7195 16.319C57.0616 16.319 58.3208 14.5561 58.3208 11.3326C58.3208 8.18468 57.0112 6.34627 54.7195 6.34627C52.4026 6.34627 51.1434 8.10913 51.1434 11.3578C51.1434 14.5058 52.4278 16.319 54.7195 16.319Z" fill="white"/>
<path d="M63.336 18.1322V0H65.5522V18.1322H63.336Z" fill="white"/>
<path d="M73.7505 18.4344C69.9226 18.4344 67.6308 15.8153 67.6308 11.4586C67.6308 6.9255 69.9981 4.43232 73.7505 4.43232C77.5784 4.43232 79.8701 7.10178 79.8701 11.4586C79.8701 15.9664 77.5028 18.4344 73.7505 18.4344ZM73.7505 16.5205C76.2436 16.5205 77.6036 14.7324 77.6036 11.4586C77.6036 8.20986 76.2185 6.34627 73.7505 6.34627C71.2573 6.34627 69.8974 8.1595 69.8974 11.4586C69.8974 14.6821 71.2825 16.5205 73.7505 16.5205Z" fill="white"/>
<path d="M84.1832 18.1322H81.967V0H84.1832V6.42183C85.0646 5.16264 86.349 4.43232 87.9355 4.43232C91.4864 4.43232 93.627 7.05142 93.627 11.4082C93.627 15.9412 91.4361 18.4344 87.9355 18.4344C86.349 18.4344 85.0646 17.7796 84.1832 16.5456V18.1322ZM87.7844 6.34627C85.4423 6.34627 84.1832 8.13431 84.1832 11.4082C84.1832 14.6569 85.4927 16.5205 87.7844 16.5205C90.1013 16.5205 91.3605 14.7072 91.3605 11.4082C91.3605 8.18468 90.051 6.34627 87.7844 6.34627Z" fill="white"/>
<path d="M97.7615 9.11648H95.5453C95.9734 6.16999 97.9126 4.43232 101.186 4.43232C104.763 4.43232 106.5 6.52256 106.5 9.64533V14.9087C106.5 16.4449 106.626 17.4019 106.979 18.1322H104.637C104.385 17.6034 104.309 16.8227 104.284 16.0168C103.151 17.7041 101.338 18.4344 99.7258 18.4344C96.9556 18.4344 95.092 17.1501 95.092 14.6065C95.092 12.7681 96.0994 11.4334 98.0637 10.7786C99.8769 10.1742 101.715 10.0231 104.284 9.9979V9.6957C104.284 7.52991 103.277 6.34627 100.985 6.34627C99.071 6.34627 98.0385 7.40399 97.7615 9.11648ZM97.3585 14.5561C97.3585 15.7901 98.3911 16.5205 99.9525 16.5205C102.42 16.5205 104.284 14.5813 104.284 12.2896V11.66C98.5925 11.7104 97.3585 12.9192 97.3585 14.5561Z" fill="white"/>
<path d="M109.378 18.1322V0H111.594V18.1322H109.378Z" fill="white"/>
</svg>
