<?xml version="1.0" encoding="utf-8"?>
<!-- Generator: Adobe Illustrator 26.0.2, SVG Export Plug-In . SVG Version: 6.00 Build 0)  -->
<svg version="1.1" id="Layer_1" xmlns="http://www.w3.org/2000/svg" xmlns:xlink="http://www.w3.org/1999/xlink" x="0px" y="0px"
	 viewBox="0 0 24 24" style="enable-background:new 0 0 24 24;" xml:space="preserve">
<style type="text/css">
	.st0{fill:none;stroke:#FF5E14;stroke-width:2;stroke-linecap:round;stroke-linejoin:round;}
</style>
<path class="st0" d="M12,20c4.4,0,8-3.6,8-8s-3.6-8-8-8s-8,3.6-8,8S7.6,20,12,20z"/>
<path class="st0" d="M12,14c1.1,0,2-0.9,2-2s-0.9-2-2-2s-2,0.9-2,2S10.9,14,12,14z"/>
<path class="st0" d="M12,2v2"/>
<path class="st0" d="M12,22v-2"/>
<path class="st0" d="M17,20.7l-1-1.7"/>
<path class="st0" d="M11,10.3L7,3.3"/>
<path class="st0" d="M20.7,17l-1.7-1"/>
<path class="st0" d="M3.3,7l1.7,1"/>
<path class="st0" d="M14,12h8"/>
<path class="st0" d="M2,12h2"/>
<path class="st0" d="M20.7,7l-1.7,1"/>
<path class="st0" d="M3.3,17l1.7-1"/>
<path class="st0" d="M17,3.3l-1,1.7"/>
<path class="st0" d="M11,13.7l-4,6.9"/>
</svg>
